<?xml version="1.0" encoding="utf-8"?>
<!-- Generator: Adobe Illustrator 25.4.0, SVG Export Plug-In . SVG Version: 6.00 Build 0)  -->
<svg version="1.1" xmlns="http://www.w3.org/2000/svg" xmlns:xlink="http://www.w3.org/1999/xlink" x="0px" y="0px"
	 viewBox="0 0 3710 3710" style="enable-background:new 0 0 3710 3710;" xml:space="preserve">
<g id="Background" style="display:none;">
	<g style="display:inline;">
		<g>
			<rect style="fill:#FFFFFF;" width="3710" height="3710"/>
		</g>
	</g>
</g>
<g id="Illustration">
	<path style="fill:#F2F6FC;" d="M2915.7,2843.39c-72.56,74.79-137.49,118.76-187.2,151.95
		c-484.81,323.71-1039,230.41-1210.34,198.52c-276.44-51.45-509.79-87.75-710.29-268.88c-455.58-411.6-433.42-1270.22-85.3-1802.1
		c41.28-63.07,388.87-578.3,944.26-650.9c13.58-1.78,23.72-2.79,32.6-3.73c85.92-9.1,618.33-57.11,1052.46,306.61
		c62.14,52.06,162.15,145.97,254.89,289.2C3345.88,1587.77,3346.95,2398.88,2915.7,2843.39z"/>
	<g>
		
			<rect x="2740.72" y="1803.8" transform="matrix(0.4018 -0.9157 0.9157 0.4018 42.1031 3698.95)" style="fill:#BDD0FB;" width="223.24" height="26.89"/>
		<g>
			<path style="fill:#91B3FA;" d="M2688.9,1520.25l5.59,32.74c1.87,10.97,10.49,19.54,21.47,21.34l26.02,4.28
				c7.04,1.16,12.99,5.73,16.08,12.16c7.76,16.17,17.29,31.22,28.3,44.93c4.47,5.57,6.02,12.93,4.02,19.78l-7.4,25.33
				c-3.12,10.68,0.88,22.16,9.95,28.59l27.1,19.2c9.08,6.43,21.24,6.39,30.27-0.09l21.44-15.39c5.8-4.16,13.26-5.13,19.99-2.77
				c16.59,5.83,33.94,9.84,51.77,11.8c7.09,0.78,13.38,4.88,16.8,11.14l12.66,23.12c5.34,9.76,16.29,15.05,27.25,13.18l32.74-5.59
				c10.97-1.87,19.54-10.49,21.34-21.47l4.28-26.02c1.16-7.04,5.73-12.99,12.16-16.08c16.17-7.76,31.22-17.29,44.93-28.3
				c5.57-4.47,12.93-6.02,19.78-4.02l25.33,7.4c10.68,3.12,22.16-0.88,28.59-9.95l19.2-27.1c6.43-9.08,6.4-21.23-0.09-30.27
				l-15.39-21.44c-4.16-5.8-5.13-13.26-2.77-19.99c5.83-16.59,9.84-33.94,11.8-51.77c0.78-7.09,4.88-13.38,11.14-16.8l23.13-12.67
				c9.76-5.34,15.05-16.29,13.18-27.25l-5.59-32.74c-1.87-10.97-10.49-19.54-21.47-21.34l-26.02-4.28
				c-7.04-1.16-12.99-5.73-16.08-12.16c-7.76-16.17-17.29-31.22-28.3-44.93c-4.47-5.57-6.02-12.93-4.02-19.78l7.4-25.33
				c3.12-10.68-0.88-22.16-9.95-28.59l-27.1-19.2c-9.08-6.43-21.24-6.39-30.27,0.09l-21.44,15.38c-5.8,4.16-13.26,5.13-19.99,2.76
				c-16.59-5.83-33.94-9.84-51.77-11.8c-7.09-0.78-13.38-4.88-16.8-11.14l-12.66-23.13c-5.34-9.76-16.29-15.05-27.25-13.18
				l-32.74,5.59c-10.97,1.87-19.54,10.49-21.34,21.47l-4.28,26.02c-1.16,7.04-5.73,12.99-12.16,16.08
				c-16.17,7.76-31.22,17.29-44.93,28.3c-5.57,4.47-12.93,6.02-19.78,4.02l-25.33-7.4c-10.68-3.12-22.16,0.88-28.59,9.95l-19.2,27.1
				c-6.43,9.08-6.39,21.23,0.09,30.27l15.39,21.44c4.16,5.8,5.14,13.26,2.77,20c-5.83,16.59-9.84,33.94-11.8,51.77
				c-0.78,7.09-4.88,13.38-11.14,16.8l-23.13,12.66C2692.32,1498.34,2687.03,1509.28,2688.9,1520.25z M2776.43,1502.4
				c-7.26-106.49,73.18-198.69,179.67-205.95c106.49-7.26,198.69,73.19,205.95,179.67c7.26,106.49-73.19,198.69-179.67,205.95
				C2875.89,1689.33,2783.68,1608.89,2776.43,1502.4z"/>
		</g>
		
			<rect x="2826.94" y="901.43" transform="matrix(0.9763 -0.2165 0.2165 0.9763 -167.3103 640.7647)" style="fill:#BDD0FB;" width="26.89" height="364.89"/>
		
			<rect x="2377.36" y="792.49" transform="matrix(0.9939 -0.1104 0.1104 0.9939 -73.6134 281.7751)" style="fill:#BDD0FB;" width="262.95" height="26.89"/>
		<g>
			<path style="fill:#91B3FA;" d="M2600.28,748.3l4.13,24.2c1.38,8.1,7.76,14.44,15.87,15.77l19.23,3.16
				c5.2,0.86,9.6,4.24,11.88,8.99c5.74,11.95,12.78,23.07,20.92,33.21c3.3,4.12,4.45,9.55,2.97,14.62l-5.47,18.72
				c-2.31,7.89,0.65,16.38,7.36,21.13l20.03,14.19c6.71,4.75,15.69,4.73,22.38-0.07l15.85-11.37c4.29-3.08,9.8-3.79,14.78-2.04
				c12.26,4.31,25.09,7.27,38.27,8.72c5.24,0.58,9.89,3.61,12.42,8.23l9.36,17.09c3.95,7.21,12.04,11.12,20.14,9.74l24.2-4.13
				c8.1-1.38,14.44-7.76,15.77-15.87l3.16-19.23c0.86-5.2,4.24-9.6,8.99-11.88c11.95-5.74,23.07-12.78,33.21-20.92
				c4.12-3.3,9.55-4.45,14.62-2.97l18.72,5.47c7.89,2.31,16.38-0.65,21.13-7.36l14.19-20.03c4.75-6.71,4.73-15.69-0.07-22.38
				l-11.37-15.85c-3.08-4.29-3.8-9.8-2.04-14.78c4.31-12.26,7.27-25.09,8.72-38.27c0.58-5.24,3.61-9.89,8.23-12.42l17.09-9.36
				c7.21-3.95,11.12-12.04,9.74-20.14l-4.13-24.2c-1.38-8.1-7.75-14.44-15.87-15.77l-19.23-3.16c-5.2-0.86-9.6-4.24-11.88-8.99
				c-5.74-11.95-12.78-23.07-20.92-33.21c-3.3-4.12-4.45-9.55-2.97-14.62l5.47-18.72c2.31-7.89-0.65-16.38-7.36-21.13l-20.03-14.19
				c-6.71-4.75-15.7-4.73-22.38,0.07l-15.85,11.37c-4.29,3.08-9.8,3.79-14.78,2.04c-12.26-4.31-25.09-7.27-38.27-8.72
				c-5.24-0.58-9.89-3.61-12.42-8.23l-9.36-17.09c-3.95-7.21-12.04-11.12-20.14-9.74l-24.2,4.13c-8.1,1.38-14.44,7.75-15.77,15.87
				l-3.16,19.23c-0.86,5.2-4.24,9.6-8.99,11.88c-11.95,5.74-23.07,12.78-33.21,20.92c-4.12,3.3-9.55,4.45-14.62,2.97l-18.72-5.47
				c-7.89-2.31-16.38,0.65-21.13,7.36l-14.19,20.03c-4.75,6.71-4.73,15.69,0.07,22.37l11.37,15.85c3.08,4.29,3.8,9.8,2.04,14.78
				c-4.31,12.26-7.27,25.09-8.72,38.27c-0.58,5.24-3.61,9.89-8.23,12.42l-17.09,9.36C2602.81,732.1,2598.9,740.19,2600.28,748.3z
				 M2664.97,735.11c-5.36-78.7,54.09-146.86,132.8-152.22c78.7-5.36,146.86,54.09,152.22,132.8
				c5.36,78.7-54.09,146.86-132.8,152.22C2738.49,873.27,2670.34,813.81,2664.97,735.11z"/>
		</g>
	</g>
	<g>
		
			<rect x="1325.03" y="746.34" transform="matrix(0.2879 -0.9577 0.9577 0.2879 75.5367 1934.3237)" style="fill:#BDD0FB;" width="26.89" height="340.05"/>
		<g>
			<g>
				<path style="fill:#BDD0FB;" d="M575,682.48l-11.37,39.01c-3.81,13.07,1.09,27.11,12.21,34.98l26.34,18.63
					c7.12,5.04,11.23,13.26,11.19,21.98c-0.11,21.95,2.33,43.61,7.1,64.59c1.94,8.52-0.29,17.45-6.16,23.92l-21.7,23.91
					c-9.15,10.08-10.89,24.85-4.35,36.79l19.54,35.63c6.55,11.93,19.95,18.4,33.36,16.1l31.83-5.45c8.61-1.48,17.34,1.44,23.48,7.66
					c15.13,15.3,32.09,28.99,50.66,40.69c7.38,4.65,12.11,12.53,12.53,21.25l1.56,32.22c0.66,13.6,9.87,25.28,22.94,29.09
					l39.01,11.37c13.07,3.81,27.11-1.09,34.98-12.2l18.63-26.34c5.04-7.12,13.26-11.23,21.98-11.19c21.95,0.11,43.61-2.33,64.59-7.1
					c8.52-1.94,17.45,0.29,23.92,6.16l23.91,21.7c10.08,9.15,24.85,10.89,36.79,4.35l35.63-19.54c11.93-6.55,18.4-19.94,16.1-33.36
					l-5.45-31.83c-1.48-8.61,1.44-17.34,7.66-23.48c15.3-15.13,28.99-32.09,40.69-50.66c4.65-7.38,12.53-12.11,21.25-12.53
					l32.23-1.56c13.6-0.66,25.28-9.87,29.09-22.94l11.37-39.02c3.81-13.07-1.09-27.11-12.2-34.97l-26.34-18.63
					c-7.12-5.04-11.23-13.26-11.19-21.98c0.11-21.95-2.33-43.61-7.1-64.59c-1.94-8.52,0.29-17.45,6.16-23.92l21.7-23.91
					c9.15-10.08,10.89-24.85,4.35-36.79l-19.54-35.63c-6.55-11.93-19.95-18.4-33.36-16.1l-31.83,5.45
					c-8.61,1.48-17.34-1.44-23.48-7.66c-15.13-15.3-32.09-28.99-50.66-40.69c-7.38-4.65-12.11-12.53-12.53-21.25l-1.56-32.23
					c-0.66-13.6-9.87-25.28-22.94-29.09l-39.02-11.37c-13.07-3.81-27.11,1.09-34.97,12.2l-18.63,26.34
					c-5.04,7.12-13.26,11.23-21.98,11.19c-21.95-0.11-43.61,2.33-64.59,7.1c-8.52,1.94-17.45-0.29-23.92-6.16l-23.91-21.7
					c-10.08-9.15-24.85-10.89-36.79-4.35l-35.63,19.55c-11.93,6.55-18.4,19.94-16.1,33.36l5.45,31.83
					c1.48,8.61-1.44,17.34-7.66,23.48c-15.3,15.13-28.99,32.09-40.69,50.66c-4.65,7.38-12.53,12.11-21.25,12.53l-32.23,1.56
					C590.49,660.2,578.81,669.42,575,682.48z M680.87,709.68c49-121.07,186.87-179.49,307.93-130.48
					c121.07,49,179.49,186.87,130.48,307.93c-49,121.07-186.87,179.48-307.93,130.48C690.28,968.61,631.86,830.75,680.87,709.68z"/>
			</g>
		</g>
	</g>
	<g>
		<path style="fill:#91B3FA;" d="M895.83,882.52c-3.88-15.19,14.25-26.32,26.2-16.17c121.35,103.03,416.14,415.01,375.27,988.06
			c-51.28,718.98,110.64,972.28,303.9,1122.06c0,0-258.22-62.05-431.57-318.63C744,2027.89,964.83,1152.58,895.83,882.52z"/>
		<path style="fill:#FFFFFF;" d="M995.21,1101.31c18.48,78.83,35.4,157.98,49.4,237.64c14.42,79.57,26.42,159.54,35.9,239.77
			c9.18,80.26,16.85,160.68,21.1,241.3c4.61,80.6,5.75,161.31,6.61,242.35c1.31,80.99,2.18,162.58,11.39,244.33
			c9.12,81.59,28.14,163.4,61.53,239.31c8.35,18.92,17.07,37.76,26.81,55.9c9.41,18.33,19.64,36.24,30.19,53.96
			c21.27,35.35,44.92,69.35,70.99,101.44c52.31,64.06,114.33,120.1,181.9,166.77c7.11,4.91,16.86,3.13,21.77-3.98
			c4.82-6.98,3.19-16.51-3.6-21.5l-0.05-0.04c-16.11-11.82-32.07-23.8-47.44-36.46c-7.79-6.21-15.28-12.75-22.9-19.14
			c-7.36-6.68-14.99-13.07-22.14-19.97c-29.06-27.1-56.17-56.2-81.01-87.16c-49.91-61.62-90.88-131.01-122.91-203.48
			c-15.61-36.42-28.51-73.94-38.48-112.31c-9.94-38.39-16.95-77.59-21.72-117.23c-9.56-79.32-11.08-160.07-12.98-241.04
			c-2-80.99-4.57-162.36-10.48-243.5c-2.85-40.57-6.42-81.09-10.72-121.52c-2.03-20.23-4.46-40.41-6.84-60.6
			c-2.58-20.16-5.27-40.31-8.13-60.43c-11.57-80.46-25.59-160.53-42.13-240.04c-16.91-79.43-35.93-158.39-57.95-236.48
			c-0.63-2.23-2.95-3.53-5.18-2.9C995.99,1096.92,994.7,1099.14,995.21,1101.31z"/>
	</g>
	<g>
		<g>
			<path style="fill:#7D97F4;" d="M1152.26,2977.38c-6.63,28.11-39.81,40.32-63.3,23.51c-129.61-92.76-472.35-388.15-506.04-937.32
				c-28.45-463.76-87.95-712.52-122.78-823.58c-7.37-23.48,19.53-42.72,39.4-28.2C718.8,1371.99,1392.39,1958.63,1152.26,2977.38z"
				/>
			<path style="fill:#FFFFFF;" d="M1113.44,2982.14c-0.55,0.46-1.14,0.88-1.79,1.24c-5.44,3.03-12.31,1.09-15.34-4.35
				c-3.44-6.17-344.83-623.92-413.52-1266.96c-0.66-6.19,3.82-11.75,10.02-12.41c6.19-0.66,11.75,3.82,12.41,10.02
				c68.19,638.35,407.37,1252.24,410.78,1258.36C1118.67,2972.83,1117.48,2978.72,1113.44,2982.14z"/>
		</g>
	</g>
	<linearGradient id="SVGID_1_" gradientUnits="userSpaceOnUse" x1="1103.4913" y1="1775.3574" x2="2607.0833" y2="1775.3574">
		<stop  offset="0" style="stop-color:#FF928E"/>
		<stop  offset="1" style="stop-color:#FE7062"/>
	</linearGradient>
	<path style="fill:url(#SVGID_1_);" d="M1103.49,2632.76l950.85-1714.81l552.74,1509.76L1103.49,2632.76z M2045.56,1030.82
		l-855.38,1542.63l1352.62-184.47L2045.56,1030.82z"/>
	<circle style="fill:#FFFFFF;" cx="2624.62" cy="2387.1" r="502"/>
	<g>
		<g>
			
				<linearGradient id="SVGID_00000037682941900634322100000007316954438915572356_" gradientUnits="userSpaceOnUse" x1="2994.717" y1="1840.6293" x2="2093.9775" y2="3117.7976">
				<stop  offset="0" style="stop-color:#E1473D"/>
				<stop  offset="1" style="stop-color:#E9605A"/>
			</linearGradient>
			<path style="fill:url(#SVGID_00000037682941900634322100000007316954438915572356_);" d="M1970.16,2312.71l-4.74,75.38
				c-1.59,25.25,13.02,48.73,36.38,58.46l55.35,23.06c14.97,6.24,25.77,19.47,29.24,35.31c8.74,39.85,21.98,78.13,39.17,114.24
				c6.98,14.66,6.58,31.76-1.43,45.88l-29.62,52.21c-12.48,22.01-9.63,49.51,7.1,68.48l49.95,56.65
				c16.73,18.98,43.66,25.25,67.06,15.61l55.5-22.85c15.02-6.18,32.03-4.44,45.7,4.32c33.68,21.58,69.99,39.5,108.44,53.16
				c15.28,5.43,27.06,17.8,31.37,33.43l15.95,57.8c6.73,24.39,28.19,41.82,53.44,43.4l75.38,4.74
				c25.25,1.59,48.72-13.02,58.46-36.38l23.06-55.35c6.24-14.97,19.47-25.76,35.31-29.24c39.85-8.74,78.13-21.98,114.24-39.17
				c14.67-6.98,31.76-6.58,45.89,1.43l52.2,29.62c22,12.48,49.51,9.64,68.48-7.1l56.65-49.95c18.98-16.73,25.25-43.66,15.62-67.06
				l-22.85-55.5c-6.18-15.02-4.44-32.03,4.32-45.7c21.58-33.67,39.5-69.99,53.16-108.44c5.43-15.28,17.8-27.06,33.43-31.37
				l57.8-15.96c24.39-6.73,41.82-28.19,43.4-53.44l4.74-75.38c1.59-25.25-13.02-48.72-36.37-58.45l-55.35-23.06
				c-14.97-6.24-25.77-19.47-29.24-35.31c-8.74-39.85-21.98-78.13-39.17-114.24c-6.98-14.66-6.58-31.76,1.43-45.88l29.62-52.21
				c12.48-22,9.63-49.51-7.1-68.48l-49.95-56.65c-16.73-18.98-43.66-25.25-67.06-15.61l-55.5,22.85
				c-15.02,6.18-32.03,4.44-45.7-4.32c-33.67-21.58-69.99-39.5-108.44-53.16c-15.28-5.43-27.06-17.8-31.37-33.43l-15.95-57.8
				c-6.73-24.39-28.19-41.82-53.44-43.4l-75.38-4.74c-25.25-1.59-48.72,13.02-58.45,36.37l-23.06,55.35
				c-6.24,14.97-19.47,25.77-35.31,29.24c-39.85,8.74-78.13,21.98-114.24,39.17c-14.66,6.98-31.76,6.58-45.88-1.43l-52.2-29.62
				c-22-12.49-49.51-9.64-68.49,7.1l-56.65,49.95c-18.98,16.73-25.24,43.66-15.61,67.05l22.85,55.51
				c6.18,15.02,4.44,32.03-4.32,45.7c-21.58,33.67-39.5,69.99-53.16,108.44c-5.43,15.28-17.8,27.06-33.43,31.38l-57.8,15.95
				C1989.18,2266,1971.75,2287.46,1970.16,2312.71z M2173.22,2318.92c39.56-239.5,265.78-401.59,505.28-362.02
				c239.5,39.56,401.59,265.78,362.03,505.28c-39.56,239.5-265.78,401.58-505.28,362.03
				C2295.74,2784.65,2133.66,2558.43,2173.22,2318.92z"/>
		</g>
	</g>
	<g>
		<defs>
			<path id="SVGID_00000155838667051146103590000006705953813316822927_" d="M2703.35,2819.47
				c-184.42,39.11-380.35-40.69-490.03-179.03c-44.61-56.27-227.25-252.71-243.16-327.73c-55.02-259.44,307.45-439,566.88-494.02
				c259.44-55.02,549.42,122.59,604.44,382.02c24.55,115.76-80.35,351.41-132.41,448.01
				C2944.46,2768.64,2847.03,2789,2703.35,2819.47z"/>
		</defs>
		<clipPath id="SVGID_00000125562370274953739190000015653624755406581148_">
			<use xlink:href="#SVGID_00000155838667051146103590000006705953813316822927_"  style="overflow:visible;"/>
		</clipPath>
		<g style="clip-path:url(#SVGID_00000125562370274953739190000015653624755406581148_);">
			
				<linearGradient id="SVGID_00000115507720169827611210000004325968767939662742_" gradientUnits="userSpaceOnUse" x1="-2870.6047" y1="2004.0532" x2="-3333.2668" y2="2572.8311" gradientTransform="matrix(-1 0 0 1 -842.6956 0)">
				<stop  offset="0" style="stop-color:#FEBBBA"/>
				<stop  offset="1" style="stop-color:#FF928E"/>
			</linearGradient>
			<path style="fill:url(#SVGID_00000115507720169827611210000004325968767939662742_);" d="M2091.72,2158.36
				c2.27-6.09,10.84-6.25,13.34-0.26c9.28,22.19,29.79,60.38,64.03,70.55c1.73,0.51,3.36,1.04,4.95,1.59
				c0.92-4.6,0.29-9.72-3.91-14.67c-12.03-14.15,3.54-37.49,3.54-37.49s3.54,18.39,19.1,28.3c13.41,8.53,22.05,30.18,16.06,49.58
				c-8.99,70.42-23.94,163.94,86.78,216.97c110.72,53.03,231.05-155.4,231.05-155.4l-43.06,235.97c0,0-100.26,95.44-243.21-3.07
				c-142.96-98.51-78.74-276.09-78.74-276.09S2058.63,2247.12,2091.72,2158.36z"/>
			
				<linearGradient id="SVGID_00000101072050390837047220000002946174649758385587_" gradientUnits="userSpaceOnUse" x1="3532.8416" y1="1271" x2="3229.4343" y2="1631.5195" gradientTransform="matrix(0.9875 0.1574 -0.1574 0.9875 -198.8565 1.6661)">
				<stop  offset="0" style="stop-color:#09005D"/>
				<stop  offset="1" style="stop-color:#1A0F91"/>
			</linearGradient>
			<path style="fill:url(#SVGID_00000101072050390837047220000002946174649758385587_);" d="M2502.67,1981.78
				c0,0-46.41-129.39,110.5-113.32c0,0,72.5-21.4,85.04,47.99c0,0,51.66,25.44,24.33,90.29c0,0,134.91-72.59,212.31,43.92
				c77.4,116.52,29.21,192.04-28.08,217.34c0,0,51.28,18.15,35.32,75.71c-15.96,57.55-126.73,110.63-203.38,52.72
				c0,0-191.11,50.11-204.48-87.64c0,0-97.73-47.01-17.05-172.38C2597.86,2011.02,2502.67,1981.78,2502.67,1981.78z"/>
			
				<linearGradient id="SVGID_00000161615767266633246860000001333621537850463874_" gradientUnits="userSpaceOnUse" x1="2737.8936" y1="2359.0857" x2="2480.7922" y2="2964.0293">
				<stop  offset="0" style="stop-color:#4F52FF"/>
				<stop  offset="1" style="stop-color:#4042E2"/>
			</linearGradient>
			<path style="fill:url(#SVGID_00000161615767266633246860000001333621537850463874_);" d="M2533.09,2291.39
				c29.49-13.04,116.57-41.21,211.27,26.43c16.06,11.47,24.48,30.91,21.72,50.46c-12.24,86.78-41.21,342.25,25,442.89
				c0,0-80.04,114.12-191.8,44.3c0,0-70.41-192.52-140.92-272.05c-48.68-54.91,37.22-233.86,59.19-277.25
				C2520.89,2299.61,2526.35,2294.37,2533.09,2291.39z"/>
			
				<linearGradient id="SVGID_00000006675403072139435210000011861431114276929427_" gradientUnits="userSpaceOnUse" x1="3093.4875" y1="1906.6188" x2="3118.207" y2="1731.1112" gradientTransform="matrix(0.9875 0.1574 -0.1574 0.9875 -198.8565 1.6661)">
				<stop  offset="0" style="stop-color:#FEBBBA"/>
				<stop  offset="1" style="stop-color:#FF928E"/>
			</linearGradient>
			<path style="fill:url(#SVGID_00000006675403072139435210000011861431114276929427_);" d="M2596.73,2114.04
				c0,0,61.43,122.48,71.95,178.6c0,0-47.22,29.07-99.25-3.44c0,0-21.05-127.41-31.09-149.43L2596.73,2114.04z"/>
			
				<linearGradient id="SVGID_00000054962042291102402690000010684876919010255291_" gradientUnits="userSpaceOnUse" x1="2980.1663" y1="1530.5553" x2="3211.2939" y2="1796.2903" gradientTransform="matrix(0.9875 0.1574 -0.1574 0.9875 -198.8565 1.6661)">
				<stop  offset="0" style="stop-color:#FEBBBA"/>
				<stop  offset="1" style="stop-color:#FF928E"/>
			</linearGradient>
			<path style="fill:url(#SVGID_00000054962042291102402690000010684876919010255291_);" d="M2511.82,1947.19
				c0,0-97.67,180.77-20.76,220.04c76.91,39.27,146.46-89.21,146.46-89.21s16.09-94.24-16.54-121.43
				C2588.34,1929.41,2511.82,1947.19,2511.82,1947.19z"/>
			
				<linearGradient id="SVGID_00000068644403446850971840000013358382739205603748_" gradientUnits="userSpaceOnUse" x1="3387.5266" y1="1148.7054" x2="3084.1179" y2="1509.2269" gradientTransform="matrix(0.9875 0.1574 -0.1574 0.9875 -198.8565 1.6661)">
				<stop  offset="0" style="stop-color:#09005D"/>
				<stop  offset="1" style="stop-color:#1A0F91"/>
			</linearGradient>
			<path style="fill:url(#SVGID_00000068644403446850971840000013358382739205603748_);" d="M2561.69,1900.65
				c0,0-52.83,19.75-57.36,45.34c-4.53,25.6,83.18,37.77,107.1,35.9l31.65,97.01c0,0,44.87-100.64,15.65-151.83
				C2629.51,1875.88,2561.69,1900.65,2561.69,1900.65z"/>
			
				<linearGradient id="SVGID_00000107556410636645916920000000707581711031620743_" gradientUnits="userSpaceOnUse" x1="3037.9128" y1="1480.3282" x2="3269.0396" y2="1746.062" gradientTransform="matrix(0.9875 0.1574 -0.1574 0.9875 -198.8565 1.6661)">
				<stop  offset="0" style="stop-color:#FEBBBA"/>
				<stop  offset="1" style="stop-color:#FF928E"/>
			</linearGradient>
			<path style="fill:url(#SVGID_00000107556410636645916920000000707581711031620743_);" d="M2613,2068.7
				c0,0,39.42-59.23,62.15-26.7c22.73,32.52-33.86,66.2-56.74,51.71L2613,2068.7z"/>
			
				<linearGradient id="SVGID_00000149377946413976571110000012892495753075619990_" gradientUnits="userSpaceOnUse" x1="-3814.7434" y1="2825.7852" x2="-2900.0342" y2="1779.4923" gradientTransform="matrix(-1 0 0 1 -842.6956 0)">
				<stop  offset="0" style="stop-color:#FEBBBA"/>
				<stop  offset="1" style="stop-color:#FF928E"/>
			</linearGradient>
			<path style="fill:url(#SVGID_00000149377946413976571110000012892495753075619990_);" d="M2758.61,2333.04
				c0,0,159.89,102.11,216.49,261.99c56.59,159.88-188.68,208.46-188.68,208.46s-38.31-33.29-76.51-14.9
				c-38.2,18.39-11.32-65.08,35.37-70.74c46.69-5.66,29.71,33.96,91.97-4.24c60.64-37.21,89.06-132.3-92.18-248.23
				c-10.51-6.72-19.36-15.86-25.38-26.78C2677.73,2362.36,2696.4,2306.59,2758.61,2333.04z"/>
		</g>
	</g>
	<circle style="fill:#FFFFFF;" cx="1288.58" cy="2561.09" r="537.53"/>
	<g>
		
			<linearGradient id="SVGID_00000094603552147096142250000017248085360532073609_" gradientUnits="userSpaceOnUse" x1="-544.4612" y1="1182.0374" x2="2703.2693" y2="4059.3706" gradientTransform="matrix(-0.9684 -0.2493 -0.2493 0.9684 2901.6458 344.8383)">
			<stop  offset="0" style="stop-color:#FF928E"/>
			<stop  offset="1" style="stop-color:#FE7062"/>
		</linearGradient>
		<path style="fill:url(#SVGID_00000094603552147096142250000017248085360532073609_);" d="M630.36,2489.37l-4.9,77.92
			c-1.64,26.1,13.46,50.37,37.6,60.43l57.22,23.84c15.47,6.45,26.64,20.13,30.23,36.5c9.03,41.2,22.72,80.77,40.49,118.1
			c7.22,15.16,6.81,32.83-1.48,47.43l-30.62,53.97c-12.91,22.75-9.96,51.18,7.34,70.8l51.64,58.56
			c17.3,19.62,45.14,26.1,69.32,16.14l57.38-23.63c15.52-6.39,33.11-4.59,47.25,4.47c34.81,22.31,72.36,40.84,112.1,54.96
			c15.8,5.61,27.97,18.4,32.43,34.56l16.49,59.75c6.96,25.21,29.15,43.23,55.25,44.87l77.93,4.9c26.1,1.64,50.37-13.46,60.43-37.6
			l23.84-57.22c6.45-15.47,20.13-26.63,36.51-30.23c41.2-9.03,80.77-22.72,118.1-40.5c15.16-7.22,32.83-6.81,47.44,1.48l53.97,30.62
			c22.75,12.91,51.18,9.96,70.8-7.34l58.56-51.64c19.62-17.3,26.1-45.14,16.14-69.32l-23.63-57.38
			c-6.39-15.52-4.59-33.11,4.47-47.25c22.31-34.81,40.84-72.36,54.96-112.1c5.61-15.8,18.4-27.97,34.56-32.43l59.76-16.49
			c25.21-6.96,43.23-29.15,44.87-55.25l4.9-77.93c1.64-26.1-13.46-50.37-37.6-60.43l-57.22-23.84
			c-15.47-6.45-26.64-20.13-30.23-36.51c-9.03-41.2-22.72-80.77-40.49-118.1c-7.22-15.16-6.81-32.83,1.48-47.43l30.62-53.97
			c12.91-22.75,9.96-51.18-7.34-70.8l-51.64-58.56c-17.3-19.62-45.14-26.1-69.32-16.14l-57.38,23.62
			c-15.52,6.39-33.11,4.59-47.25-4.47c-34.81-22.31-72.36-40.84-112.1-54.96c-15.8-5.61-27.97-18.4-32.43-34.56l-16.49-59.76
			c-6.96-25.21-29.15-43.23-55.25-44.87l-77.93-4.9c-26.1-1.64-50.37,13.46-60.43,37.6l-23.84,57.22
			c-6.45,15.47-20.13,26.64-36.5,30.23c-41.2,9.03-80.77,22.72-118.1,40.49c-15.16,7.22-32.83,6.81-47.43-1.48l-53.97-30.62
			c-22.75-12.91-51.18-9.96-70.8,7.34l-58.56,51.64c-19.62,17.3-26.1,45.13-16.14,69.32l23.63,57.38
			c6.39,15.53,4.59,33.11-4.47,47.25c-22.31,34.81-40.84,72.35-54.96,112.1c-5.61,15.8-18.4,27.97-34.56,32.43l-59.76,16.49
			C650.02,2441.08,632,2463.27,630.36,2489.37z M840.28,2495.79c40.9-247.59,274.76-415.15,522.35-374.25
			c247.59,40.9,415.15,274.76,374.25,522.35c-40.9,247.59-274.76,415.15-522.35,374.25
			C966.94,2977.24,799.38,2743.38,840.28,2495.79z"/>
	</g>
	<g>
		<defs>
			<path id="SVGID_00000017494773187319239920000016358281762959021244_" d="M1388.3,3013.24
				c-190.65,40.43-393.2-42.06-506.58-185.07c-46.12-58.17-188.88-250.68-205.32-328.23c-56.88-268.2,271.72-464.22,539.91-521.1
				c268.2-56.88,568.04,126.57,624.92,394.77c25.38,119.67-19.36,367.58-73.18,467.44
				C1701.26,2964.99,1536.84,2981.74,1388.3,3013.24z"/>
		</defs>
		<clipPath id="SVGID_00000128482088268439340600000004002081017660874934_">
			<use xlink:href="#SVGID_00000017494773187319239920000016358281762959021244_"  style="overflow:visible;"/>
		</clipPath>
		<g style="clip-path:url(#SVGID_00000128482088268439340600000004002081017660874934_);">
			
				<linearGradient id="SVGID_00000141440962354844339710000014286693067391037835_" gradientUnits="userSpaceOnUse" x1="-3023.1902" y1="2878.488" x2="-2771.2063" y2="2878.488" gradientTransform="matrix(-1 0 0 1 -1339.3429 0)">
				<stop  offset="0" style="stop-color:#A22B25"/>
				<stop  offset="1" style="stop-color:#C0423C"/>
			</linearGradient>
			<path style="fill:url(#SVGID_00000141440962354844339710000014286693067391037835_);" d="M1571.59,2807.95
				c26.45,21.31,58.21,29.45,95.38,10.21l16.87,38.25c0,0-16.94,84.59-101.81,92.24c-8.45,0.76-16.78,0.34-24.96-0.93
				C1517.73,2886.37,1546.93,2835.57,1571.59,2807.95z"/>
			
				<linearGradient id="SVGID_00000025444752229591560390000004903378489110669206_" gradientUnits="userSpaceOnUse" x1="1750.4974" y1="2290.4001" x2="1646.3074" y2="2508.8628">
				<stop  offset="0" style="stop-color:#4F52FF"/>
				<stop  offset="1" style="stop-color:#4042E2"/>
			</linearGradient>
			<path style="fill:url(#SVGID_00000025444752229591560390000004903378489110669206_);" d="M1431.86,2863.16l40.52-241.38
				c1.6,2.51,34.4,133.95,99.21,186.17c-24.67,27.63-53.86,78.42-14.52,139.77C1488.45,2937.07,1431.86,2863.16,1431.86,2863.16z"/>
			
				<linearGradient id="SVGID_00000164479497786140244030000004348912158486000573_" gradientUnits="userSpaceOnUse" x1="1182.3055" y1="2947.7273" x2="1807.5063" y2="1687.2411">
				<stop  offset="0" style="stop-color:#4F52FF"/>
				<stop  offset="1" style="stop-color:#4042E2"/>
			</linearGradient>
			<path style="fill:url(#SVGID_00000164479497786140244030000004348912158486000573_);" d="M1118.15,2499.74
				c0,0,149.28-49.77,341.94-22.18c20.12,2.88,72.15,111.37,64.4,186.75c-13.12,127.67-82.79,341.94-85.28,342.6
				c-80.34,21.33-345.03,3.34-345.03,3.34L1118.15,2499.74z"/>
			
				<linearGradient id="SVGID_00000023964000396146695760000015654793012421040518_" gradientUnits="userSpaceOnUse" x1="3433.7129" y1="2361.2029" x2="3429.9297" y2="2103.9333" gradientTransform="matrix(1 0 0 1 -2090.2158 0)">
				<stop  offset="0" style="stop-color:#A22B25"/>
				<stop  offset="1" style="stop-color:#C0423C"/>
			</linearGradient>
			<path style="fill:url(#SVGID_00000023964000396146695760000015654793012421040518_);" d="M1265.28,2342.98l8.32,129.33
				c0.77,12.03,8.56,22.23,19.48,25.46c25.15,7.45,72.64,16.42,119.18-2.34c8.52-3.43,12.89-13.52,10.03-22.72l-61.57-197.77
				L1265.28,2342.98z"/>
			<g>
				
					<linearGradient id="SVGID_00000150824888759018779170000005681159284774020752_" gradientUnits="userSpaceOnUse" x1="-721.8235" y1="-19532.2285" x2="-547.0542" y2="-19276.7949" gradientTransform="matrix(0.9322 -0.362 0.362 0.9322 -13839.1143 4507.9854)">
					<stop  offset="0" style="stop-color:#A22B25"/>
					<stop  offset="1" style="stop-color:#C0423C"/>
				</linearGradient>
				<path style="fill:url(#SVGID_00000150824888759018779170000005681159284774020752_);" d="M1351.19,2144.23
					c0,0,69.37,69.98,89,113.23c19.63,43.25,40.29,68.23-7.36,96.99c-47.66,28.75-100.6,20.01-141.03-14.97
					c0,0-62.9-53.66-65.49-84.63C1223.71,2223.88,1351.19,2144.23,1351.19,2144.23z"/>
				
					<linearGradient id="SVGID_00000092426359255220056910000018238603996488903819_" gradientUnits="userSpaceOnUse" x1="14865.751" y1="3238.9822" x2="15069.3477" y2="3501.1118" gradientTransform="matrix(0.9322 -0.362 0.362 0.9322 -13839.1143 4507.9854)">
					<stop  offset="0" style="stop-color:#09005D"/>
					<stop  offset="1" style="stop-color:#1A0F91"/>
				</linearGradient>
				<path style="fill:url(#SVGID_00000092426359255220056910000018238603996488903819_);" d="M1296.96,2301.04l6.46-2.51
					c0,0-47.83-44.27-28.16-62.95c19.67-18.68,104.99-73.56,112.22-114.2c6.96-39.18-26.12-73.45-56.29-74.92
					c-1.91-0.09-3.53,1.42-3.75,3.32l-0.56,4.86c-0.39,3.33-4.63,4.49-6.66,1.83c-1.93-2.53-6-1.66-6.59,1.46
					c-2.3,12.21-12.66,34.63-53.93,60.1c-58.55,36.13-90.33,77.85-74.43,121.83c1.01,2.79-1.35,5.45-4.27,4.93
					c-5.76-1.03-13.73,0.53-20.43,12.77c-11.66,21.29,10.09,56.31,60.12,72.64c2.38,0.78,3.46,3.6,2,5.63
					c-5.14,7.15-11.26,21.8,20.84,25.68c32.84,3.98,48.31-3.86,53.78-7.77c1.47-1.05,1.99-2.97,1.23-4.61l-17.39-37.7
					c-0.9-1.95,0.03-4.25,2.03-5.03L1296.96,2301.04z"/>
				
					<linearGradient id="SVGID_00000116197507630163162610000003044838615150942599_" gradientUnits="userSpaceOnUse" x1="-786.7476" y1="-19487.8086" x2="-611.9777" y2="-19232.375" gradientTransform="matrix(0.9322 -0.362 0.362 0.9322 -13839.1143 4507.9854)">
					<stop  offset="0" style="stop-color:#A22B25"/>
					<stop  offset="1" style="stop-color:#C0423C"/>
				</linearGradient>
				<path style="fill:url(#SVGID_00000116197507630163162610000003044838615150942599_);" d="M1301.69,2308.5
					c0,0-34.88-48.37-53.14-23.92c-18.26,24.45,35.93,55.42,56.1,49.9L1301.69,2308.5z"/>
			</g>
			<g>
				
					<linearGradient id="SVGID_00000040556634865899132930000010031966394202279068_" gradientUnits="userSpaceOnUse" x1="1016.9582" y1="2865.7151" x2="1642.1602" y2="1605.2268">
					<stop  offset="0" style="stop-color:#4F52FF"/>
					<stop  offset="1" style="stop-color:#4042E2"/>
				</linearGradient>
				<path style="fill:url(#SVGID_00000040556634865899132930000010031966394202279068_);" d="M1119.28,2871.61
					c-8.08-57.03,50.99-140.87,75.42-172.69c6.99-9.1,10.9-20.23,11-31.7c0.71-80.77-33.2-132.65-87.54-167.48
					c0,0-197.23,229.78-147.01,406.52c5.42,19.07,13.82,35.46,24.46,49.54C1003.52,2889.21,1080.49,2874.68,1119.28,2871.61z"/>
				<path style="fill:#7D97F4;" d="M1122.96,2849.55l-7.51-0.86c6.37-55.93,55.45-124.98,76.25-152.07l6,4.61
					C1177.28,2727.82,1129.12,2795.5,1122.96,2849.55z"/>
				
					<linearGradient id="SVGID_00000034779249119579508600000009895157453719566982_" gradientUnits="userSpaceOnUse" x1="3188.7571" y1="2806.2261" x2="3332.5256" y2="3184.564" gradientTransform="matrix(1 0 0 1 -2090.2158 0)">
					<stop  offset="0" style="stop-color:#A22B25"/>
					<stop  offset="1" style="stop-color:#C0423C"/>
				</linearGradient>
				<path style="fill:url(#SVGID_00000034779249119579508600000009895157453719566982_);" d="M1120.83,2879.51
					c-0.69-2.56-1.17-5.21-1.55-7.9c-38.79,3.07-115.76,17.6-123.68,84.2c88.02,116.41,330.62,74.41,330.62,74.41v-45.3
					C1326.22,2984.92,1139.9,2950.3,1120.83,2879.51z"/>
			</g>
			
				<linearGradient id="SVGID_00000069385613032485763960000005647700041843578265_" gradientUnits="userSpaceOnUse" x1="3359.5134" y1="2729.9404" x2="3513.187" y2="3134.3445" gradientTransform="matrix(1 0 0 1 -2090.2158 0)">
				<stop  offset="0" style="stop-color:#A22B25"/>
				<stop  offset="1" style="stop-color:#C0423C"/>
			</linearGradient>
			<path style="fill:url(#SVGID_00000069385613032485763960000005647700041843578265_);" d="M1302.9,3030.01
				c0,0,13.19-90.46,98.94-54.54c64.45,27,58.16,49.6,58.16,49.6L1302.9,3030.01z"/>
			<g>
				<path style="fill:#91B3FA;" d="M1713.96,2627.28l-43.16,263.12c-0.75,4.6-4.07,8.35-8.52,9.6
					c-16.44,4.63-58.04,13.51-98.86-0.48c-5.62-1.93-9.71-6.87-10.73-12.77l-45.72-265.16L1713.96,2627.28z"/>
				<path style="fill:#7D97F4;" d="M1713.96,2609.57l-9.85-21.96c-0.96-2.15-2.99-3.6-5.31-3.8c-19.18-1.65-107.42-8.51-165.24-0.51
					c-3.47,0.48-6.43,2.77-7.78,6.03l-7.67,18.45L1713.96,2609.57z"/>
				<path style="fill:#91B3FA;" d="M1721.74,2610.14l1.84,18.13c0.45,4.45-2.83,8.39-7.25,8.7c-33.4,2.29-161.44,9.72-213.42-6.89
					c-3.74-1.19-5.87-5.17-4.87-9l2.44-9.32c1.36-5.21,6.04-8.84,11.37-8.82l202.73,0.65
					C1718.27,2603.6,1721.36,2606.43,1721.74,2610.14z"/>
				<path style="fill:#7D97F4;" d="M1703.36,2691.94c0,0-118.47,19-184.25,0l-1-5.81l-3.51,3.69c-1.69,1.78-2.43,4.27-1.99,6.7
					l19.26,105.01c0,0,82.97,19.95,157.85,1.28l18.7-106.26c0.6-2.92-0.09-5.96-1.9-8.33l-2.1-2.76L1703.36,2691.94z"/>
				<path style="fill:#FFFFFF;" d="M1626.43,2807.01c-1.24-0.02-2.23-1.05-2.21-2.29l1.78-96.03c0.02-1.25,1.05-2.28,2.29-2.21
					c1.24,0.02,2.23,1.05,2.21,2.29l-1.78,96.03c-0.02,1.23-1.03,2.21-2.25,2.21H1626.43z M1603.73,2806.73
					c-1.24-0.02-2.23-1.05-2.21-2.29l1.76-94.95c0.02-1.24,1.09-2.26,2.29-2.21c1.24,0.02,2.23,1.05,2.21,2.29l-1.76,94.95
					c-0.02,1.23-1.03,2.21-2.25,2.21H1603.73z M1649.15,2805.69c-1.24-0.02-2.23-1.05-2.21-2.29l1.78-96.24
					c0.02-1.24,1.01-2.4,2.29-2.21c1.24,0.02,2.23,1.05,2.21,2.29l-1.78,96.24c-0.02,1.23-1.03,2.21-2.25,2.21H1649.15z
					 M1576.76,2805.05c-1.24-0.02-2.23-1.05-2.21-2.29l1.73-93.51c0.02-1.24,1.08-2.03,2.29-2.21c1.24,0.02,2.23,1.05,2.21,2.29
					l-1.73,93.51c-0.02,1.23-1.03,2.21-2.25,2.21H1576.76z M1667,2803.54c-1.24-0.03-2.23-1.06-2.2-2.3l2.11-95.79
					c0.03-1.24,0.89-2.16,2.3-2.2c1.24,0.03,2.23,1.06,2.2,2.3l-2.11,95.79c-0.03,1.23-1.03,2.2-2.25,2.2H1667z M1550.76,2799.66
					l-6.79-92.84c-0.09-1.24,0.84-2.32,2.08-2.41c1.29-0.12,2.32,0.84,2.41,2.08l6.79,92.84c0.09,1.24-0.84,2.32-2.08,2.41
					c-0.06,0-0.11,0-0.17,0C1551.84,2801.75,1550.85,2800.85,1550.76,2799.66z M1680.33,2801.12c-1.24-0.11-2.16-1.2-2.05-2.43
					l8.14-95.79c0.11-1.24,1.17-2.15,2.43-2.05c1.24,0.11,2.16,1.2,2.05,2.43l-8.14,95.79c-0.1,1.17-1.08,2.06-2.24,2.06
					C1680.46,2801.13,1680.39,2801.12,1680.33,2801.12z M1533.11,2796.56l-11.69-93.88c-0.15-1.23,0.72-2.36,1.95-2.51
					c1.24-0.18,2.36,0.73,2.51,1.96l11.69,93.88c0.15,1.23-0.72,2.36-1.95,2.51c-0.09,0.01-0.19,0.02-0.28,0.02
					C1534.22,2798.53,1533.25,2797.69,1533.11,2796.56z"/>
			</g>
			
				<linearGradient id="SVGID_00000109017702138746832430000002731522750490259123_" gradientUnits="userSpaceOnUse" x1="-3056.2954" y1="2807.092" x2="-2980.0095" y2="2807.092" gradientTransform="matrix(-1 0 0 1 -1339.3429 0)">
				<stop  offset="0" style="stop-color:#A22B25"/>
				<stop  offset="1" style="stop-color:#C0423C"/>
			</linearGradient>
			<path style="fill:url(#SVGID_00000109017702138746832430000002731522750490259123_);" d="M1708.63,2753.58
				c0,0-36.53-22.47-60.67-5.46c-22.99,16.21,14.51,113.95,28.01,123.49C1689.47,2881.15,1735.63,2805.32,1708.63,2753.58z"/>
		</g>
	</g>
	<g>
		<circle style="fill:#FFFFFF;" cx="1940.92" cy="1102.27" r="502"/>
		<g>
			<g>
				<path style="fill:#7D97F4;" d="M2518.81,972.15l-56.3-15.54c-15.22-4.2-27.27-15.68-32.56-30.56
					c-13.31-37.45-30.76-72.82-51.78-105.62c-8.54-13.32-10.23-29.89-4.21-44.52l22.26-54.06c9.38-22.79,3.28-49.01-15.21-65.31
					l-55.18-48.66c-18.49-16.3-45.27-19.07-66.71-6.91l-50.85,28.85c-13.76,7.81-30.41,8.2-44.69,1.39
					c-35.17-16.75-72.46-29.64-111.27-38.15c-15.43-3.38-28.32-13.9-34.39-28.48l-22.47-53.91c-9.48-22.75-32.34-36.97-56.93-35.43
					l-73.42,4.61c-24.59,1.54-45.5,18.52-52.05,42.28l-15.54,56.3c-4.2,15.23-15.68,27.27-30.56,32.56
					c-37.45,13.3-72.82,30.76-105.62,51.78c-13.32,8.54-29.89,10.23-44.51,4.21l-54.06-22.26c-22.79-9.38-49.02-3.27-65.32,15.21
					l-48.65,55.18c-16.3,18.48-19.07,45.27-6.91,66.7l28.85,50.85c7.81,13.76,8.19,30.41,1.4,44.69
					c-16.75,35.17-29.64,72.45-38.15,111.27c-3.38,15.43-13.9,28.32-28.48,34.4l-53.92,22.46c-22.74,9.48-36.97,32.34-35.43,56.93
					l4.61,73.43c1.55,24.59,18.52,45.5,42.28,52.05l56.3,15.54c15.22,4.2,27.27,15.67,32.56,30.56
					c13.31,37.45,30.76,72.82,51.78,105.62c8.54,13.32,10.23,29.89,4.21,44.51l-22.26,54.06c-9.38,22.79-3.27,49.02,15.21,65.31
					l55.18,48.65c18.48,16.3,45.27,19.07,66.7,6.91l50.85-28.85c13.76-7.81,30.41-8.2,44.69-1.39
					c35.17,16.75,72.45,29.64,111.27,38.15c15.43,3.38,28.32,13.9,34.39,28.48l22.46,53.91c9.48,22.75,32.34,36.97,56.94,35.43
					l73.42-4.61c24.59-1.55,45.5-18.52,52.06-42.28l15.54-56.3c4.2-15.23,15.68-27.27,30.56-32.56
					c37.45-13.31,72.82-30.76,105.62-51.78c13.32-8.54,29.89-10.23,44.51-4.21l54.06,22.26c22.79,9.38,49.02,3.27,65.31-15.21
					l48.65-55.18c16.3-18.48,19.07-45.27,6.91-66.7l-28.85-50.85c-7.81-13.76-8.2-30.41-1.4-44.69
					c16.75-35.17,29.64-72.45,38.15-111.27c3.38-15.43,13.9-28.32,28.48-34.39l53.91-22.46c22.75-9.48,36.98-32.34,35.43-56.94
					l-4.61-73.42C2559.54,999.61,2542.56,978.71,2518.81,972.15z M2010.68,1522.41c-233.27,38.53-453.62-119.34-492.15-352.62
					c-38.53-233.28,119.34-453.62,352.62-492.15c233.28-38.53,453.62,119.34,492.15,352.61
					C2401.83,1263.54,2243.96,1483.88,2010.68,1522.41z"/>
			</g>
		</g>
		<g>
			<defs>
				<path id="SVGID_00000124127623446964809070000004140486493151261884_" d="M1688.58,1507.91
					c176.79,34.43,909.75,36.53,1016.57-98.21c43.45-54.81-306.07-197.12-290.57-270.19c53.59-252.69-104.4-452-357.09-505.59
					c-252.7-53.59-514.75,54.57-568.34,307.27c-23.91,112.75-50.7,320.27,0,414.36C1552.09,1472.33,1548.16,1480.56,1688.58,1507.91
					z"/>
			</defs>
			<clipPath id="SVGID_00000183234460793748488630000008195542288828538021_">
				<use xlink:href="#SVGID_00000124127623446964809070000004140486493151261884_"  style="overflow:visible;"/>
			</clipPath>
			<g style="clip-path:url(#SVGID_00000183234460793748488630000008195542288828538021_);">
				
					<linearGradient id="SVGID_00000062169078338763885470000017225379169242060222_" gradientUnits="userSpaceOnUse" x1="2493.5198" y1="1045.9945" x2="1895.269" y2="1435.8657">
					<stop  offset="0" style="stop-color:#FF928E"/>
					<stop  offset="1" style="stop-color:#FE7062"/>
				</linearGradient>
				<path style="fill:url(#SVGID_00000062169078338763885470000017225379169242060222_);" d="M1998.38,1018.07
					c0,0,185.03,334.59,450.11,358.79l14.13,39.86c0,0-365.29,71.34-552.41-229.59L1998.38,1018.07z"/>
				
					<linearGradient id="SVGID_00000118382589863689190150000006142191966953228205_" gradientUnits="userSpaceOnUse" x1="5582.4897" y1="1873.7698" x2="5801.4536" y2="1873.7698" gradientTransform="matrix(0.996 -0.0899 0.0899 0.996 -3286.728 40.6445)">
					<stop  offset="0" style="stop-color:#FEBBBA"/>
					<stop  offset="1" style="stop-color:#FF928E"/>
				</linearGradient>
				<path style="fill:url(#SVGID_00000118382589863689190150000006142191966953228205_);" d="M2443.19,1400.06
					c-8.23-16.69,3.39-36.84,21.99-37.13c0.91-0.01,1.86,0,2.83,0.03c31.19,1.16,62.81-3.64,74.5-11.64
					c3.88-2.65,9.38-1.91,11.85,2.08c3.23,5.22,0.67,14.07-28.88,26.95c0,0,65.41,25.49,118.08,0.46
					c51.35-24.4-22.83,104.8-179.03,42.8c-7.85-3.12-14.23-9.14-17.96-16.72L2443.19,1400.06z"/>
				
					<linearGradient id="SVGID_00000077305009286429858190000006630668423354288770_" gradientUnits="userSpaceOnUse" x1="2391.0466" y1="888.751" x2="1792.7966" y2="1278.6218">
					<stop  offset="0" style="stop-color:#FF928E"/>
					<stop  offset="1" style="stop-color:#FE7062"/>
				</linearGradient>
				<path style="fill:url(#SVGID_00000077305009286429858190000006630668423354288770_);" d="M1937.3,1563.2
					c0,0,171.53-469.91,36.49-576.64c0,0-202.38-32.65-349.54,23.16l16.79,430.91C1641.04,1440.63,1749.03,1630.48,1937.3,1563.2z"
					/>
				
					<linearGradient id="SVGID_00000150794904604112363990000009249363828861247621_" gradientUnits="userSpaceOnUse" x1="-4643.0532" y1="902.6052" x2="-4459.2173" y2="902.6052" gradientTransform="matrix(-1 0 0 1 -2709.3416 0)">
					<stop  offset="0" style="stop-color:#FEBBBA"/>
					<stop  offset="1" style="stop-color:#FF928E"/>
				</linearGradient>
				<path style="fill:url(#SVGID_00000150794904604112363990000009249363828861247621_);" d="M1933.71,887.21
					c0,0-26.29,63.86-32.99,114.06c-1.97,14.74-13.36,26.34-28.03,28.77c-31.42,5.22-83.51,8.13-115.2-20.78
					c-7.03-6.42-9.42-16.5-6.22-25.46c13.05-36.54,80.92-188.68,117.89-212.01L1933.71,887.21z"/>
				<g>
					
						<linearGradient id="SVGID_00000070077872209161020680000015487379074147730606_" gradientUnits="userSpaceOnUse" x1="-4646.6411" y1="1432.3514" x2="-4277.8643" y2="1432.3514" gradientTransform="matrix(-1 0 0 1 -2709.3416 0)">
						<stop  offset="0" style="stop-color:#FEBBBA"/>
						<stop  offset="1" style="stop-color:#FF928E"/>
					</linearGradient>
					<path style="fill:url(#SVGID_00000070077872209161020680000015487379074147730606_);" d="M1666.07,1356.79
						c0,0.27-0.02,0.56-0.02,0.83c-0.55,79.47,106.92,87.07,106.92,87.07s30.73-51.1,70.17-52.76
						c39.44-1.67,94.16,62.57,94.16,62.57l-87.51,14.02c0,0-166.89,100.1-281.26-18.82
						C1588.74,1375.64,1636.93,1359.45,1666.07,1356.79z"/>
					
						<linearGradient id="SVGID_00000137101816069148671990000017131960393577660058_" gradientUnits="userSpaceOnUse" x1="2310.1213" y1="764.5748" x2="1711.87" y2="1154.4464">
						<stop  offset="0" style="stop-color:#FF928E"/>
						<stop  offset="1" style="stop-color:#FE7062"/>
					</linearGradient>
					<path style="fill:url(#SVGID_00000137101816069148671990000017131960393577660058_);" d="M1624.25,1009.72
						c108.43,38.45,92.74,123.6,92.74,123.6s-50.04,143.83-50.92,223.47c-29.14,2.66-77.33,18.85-97.55,92.91
						c-2.71-2.82-5.41-5.73-8.06-8.8C1423.75,1282.49,1624.25,1009.72,1624.25,1009.72z"/>
					
						<linearGradient id="SVGID_00000158731436965310475410000000769856653893697679_" gradientUnits="userSpaceOnUse" x1="-4466.1167" y1="1234.9465" x2="-3981.2043" y2="1369.8788" gradientTransform="matrix(-1 0 0 1 -2709.3416 0)">
						<stop  offset="0" style="stop-color:#E1473D"/>
						<stop  offset="1" style="stop-color:#E9605A"/>
					</linearGradient>
					<path style="fill:url(#SVGID_00000158731436965310475410000000769856653893697679_);" d="M1666.07,1361.01
						c2.31,0,4.19-1.86,4.22-4.17c0.69-61.97,31.57-163.64,44.81-204.48c0.72-2.22-0.49-4.59-2.71-5.31
						c-2.24-0.71-4.6,0.5-5.31,2.71c-13.36,41.2-44.52,143.86-45.22,206.99c-0.02,2.33,1.84,4.24,4.17,4.26H1666.07z"/>
				</g>
				<g>
					
						<linearGradient id="SVGID_00000037687738750384267910000007171222522662531998_" gradientUnits="userSpaceOnUse" x1="17194.3379" y1="727.6235" x2="16953.2051" y2="1046.6217" gradientTransform="matrix(1 0 0 1 -15189.3906 0)">
						<stop  offset="0" style="stop-color:#FEBBBA"/>
						<stop  offset="1" style="stop-color:#FF928E"/>
					</linearGradient>
					<path style="fill:url(#SVGID_00000037687738750384267910000007171222522662531998_);" d="M2052.27,726.23
						c0,3.18-71.01,201.01-71.01,201.01l-112.1-42.94l39.44-197.5C1908.61,686.79,2052.27,673.01,2052.27,726.23z"/>
					
						<linearGradient id="SVGID_00000057143303319753833460000014642940068780388017_" gradientUnits="userSpaceOnUse" x1="-4635.8374" y1="560.9173" x2="-4769.7749" y2="1218.0494" gradientTransform="matrix(-1 0 0 1 -2709.3416 0)">
						<stop  offset="0" style="stop-color:#09005D"/>
						<stop  offset="1" style="stop-color:#1A0F91"/>
					</linearGradient>
					<path style="fill:url(#SVGID_00000057143303319753833460000014642940068780388017_);" d="M1928.27,734.91l-28.9,102.34
						c-0.37,1.31-0.56,2.63-0.56,4c-0.01,8.35,2.06,37.07,31.31,33.16c26.55-3.54,50.83-6.38,66.27,0.89
						c6.93,3.27,10.25,11.24,7.66,18.45c-6.46,17.97-21.75,58.2-40.38,91.13c-3.78,6.68-12.07,9.28-19.06,6.1
						c-21.05-9.58-64.89-31.02-96.12-56.53c-4.23-3.46-6.26-8.89-5.26-14.26c4.91-26.18,19.55-105.81,20.19-128.63
						c0.61-21.42-23.43-37.77-34.01-43.92c-3.47-2.02-5.94-5.33-6.88-9.23c-3.32-13.79-6.14-44.99,33.66-51.86
						c8.33-1.44,13.76-9.41,12.07-17.69c-3.37-16.49-2.29-40.75,29.02-49.69c31.82-9.08,51.85,10.07,62.03,24.76
						c4.12,5.94,11.82,7.87,18.42,4.92c3.76-1.68,8.29-1.75,13.17,2.36c6.57,5.54,16.58,3.85,21.41-3.26
						c9.28-13.66,26.14-27.29,54.68-18.06c50.64,16.39,48.22,74.78,29.66,106.52c-18.56,31.74-72.46,10.86-97.98-10.18
						c-19.4-15.99-48.94-6.43-61.98-0.92C1932.57,727.05,1929.49,730.59,1928.27,734.91z"/>
					
						<linearGradient id="SVGID_00000123435951471662222120000013115250161950517407_" gradientUnits="userSpaceOnUse" x1="16850.9102" y1="976.7091" x2="17038.4883" y2="784.2586" gradientTransform="matrix(1 0 0 1 -15189.3906 0)">
						<stop  offset="0" style="stop-color:#FEBBBA"/>
						<stop  offset="1" style="stop-color:#FF928E"/>
					</linearGradient>
					<path style="fill:url(#SVGID_00000123435951471662222120000013115250161950517407_);" d="M1858.93,829.65
						c0,0,24.32-57.42,4.5-75.23c-19.82-17.8-47.47-11.69-46.57,32.65C1817.98,842.22,1858.93,829.65,1858.93,829.65z"/>
				</g>
			</g>
		</g>
	</g>
</g>
</svg>
